<?xml version="1.0" encoding="iso-8859-1"?>
<!-- Uploaded to: SVG Repo, www.svgrepo.com, Generator: SVG Repo Mixer Tools -->
<svg version="1.1" id="Layer_1" xmlns="http://www.w3.org/2000/svg" xmlns:xlink="http://www.w3.org/1999/xlink" 
	 viewBox="0 0 512 512" xml:space="preserve">
<rect x="248" y="290.636" width="16" height="134.992"/>
<rect x="430.664" y="275.828" width="16" height="149.832"/>
<rect x="65.328" y="273.036" width="16" height="152.64"/>
<path style="fill:#D6D6D6;" d="M401.392,136.3H432c44,0,80,36.08,80,80.192v16.032c0,44.096-36,80.192-80,80.192H80
	c-44,0-80-36.08-80-80.192v-16.032c0-41.12,31.424-74.888,71.328-79.304C70.544,131.644,70,126.02,70,120.276
	C70,54.396,123.28,1.004,188.992,1.004c50.464,0,93.488,31.552,110.8,75.984c0,0,26.672-12.288,60.016-0.448
	C401.264,91.26,401.392,136.3,401.392,136.3z"/>
<polygon style="fill:#AAAAAA;" points="236.528,502.996 275.472,502.996 272.688,483.524 239.312,483.524 "/>
<path style="fill:#E50914;" d="M322.752,469.612v-75.44c0-4.4-3.6-8-8-8H197.248c-4.4,0-8,3.6-8,8v75.44H322.752z"/>
<path style="fill:#D6D6D6;" d="M189.248,469.612v6.952c0,4.4,3.6,8,8,8h117.504c4.4,0,8-3.6,8-8v-6.952H189.248z"/>
<polygon style="fill:#AAAAAA;" points="419.2,502.996 458.136,502.996 455.352,483.524 421.976,483.524 "/>
<path style="fill:#E50914;" d="M505.416,469.612v-75.44c0-4.4-3.6-8-8-8H379.912c-4.4,0-8,3.6-8,8v75.44H505.416z"/>
<path style="fill:#D6D6D6;" d="M371.912,469.612v6.952c0,4.4,3.6,8,8,8h117.504c4.4,0,8-3.6,8-8v-6.952H371.912z"/>
<polygon style="fill:#AAAAAA;" points="53.864,502.996 92.8,502.996 90.024,483.524 56.648,483.524 "/>
<g>
	<rect x="226.8" y="502.996" style="fill:#D6D6D6;" width="58.408" height="8"/>
	<rect x="409.44" y="502.996" style="fill:#D6D6D6;" width="58.408" height="8"/>
	<rect x="44.128" y="502.996" style="fill:#D6D6D6;" width="58.408" height="8"/>
</g>
<path style="fill:#E50914;" d="M140.088,469.612v-75.44c0-4.4-3.6-8-8-8H14.584c-4.4,0-8,3.6-8,8v75.44H140.088z"/>
<path style="fill:#D6D6D6;" d="M6.584,469.612v6.952c0,4.4,3.6,8,8,8h117.504c4.4,0,8-3.6,8-8v-6.952H6.584z"/>
</svg>